<?xml version="1.0" encoding="UTF-8" standalone="no"?>
<!DOCTYPE svg PUBLIC "-//W3C//DTD SVG 1.1//EN" "http://www.w3.org/Graphics/SVG/1.1/DTD/svg11.dtd">
<svg width="100%" height="100%" viewBox="0 0 720 720" version="1.1" xmlns="http://www.w3.org/2000/svg" xmlns:xlink="http://www.w3.org/1999/xlink" xml:space="preserve" xmlns:serif="http://www.serif.com/" style="fill-rule:evenodd;clip-rule:evenodd;stroke-linecap:round;stroke-linejoin:round;">
    <g transform="matrix(1,0,0,1,-806.688,0)">
        <g id="Artboard1" transform="matrix(1,0,0,1,806.688,0)">
            <rect x="0" y="0" width="720" height="720" style="fill:none;"/>
            <g id="Layer-1" serif:id="Layer 1">
            </g>
            <g id="Layer-2" serif:id="Layer 2">
            </g>
            <g id="Layer-11" serif:id="Layer 1">
            </g>
            <g id="Next-Gen-LE---homepage-slide.svg" serif:id="Next Gen LE - homepage slide.svg" transform="matrix(1.16623,0,0,1.16623,360,300.158)">
                <g transform="matrix(1,0,0,1,-360,-360)">
                    <path d="M210.619,606.353L429.607,606.353C433.147,606.353 435.901,603.501 435.901,600.059L435.901,428.173C435.901,424.633 433.049,421.879 429.607,421.879L210.619,421.879C207.079,421.879 204.325,424.731 204.325,428.173L204.325,599.961C204.325,603.501 207.079,606.353 210.619,606.353Z" style="fill:none;fill-rule:nonzero;stroke:rgb(16,22,47);stroke-width:1px;"/>
                    <path d="M435.999,459.738L204.325,459.738" style="fill:none;fill-rule:nonzero;stroke:rgb(16,22,47);stroke-width:1px;"/>
                    <path d="M435.999,496.121L204.325,496.121" style="fill:none;fill-rule:nonzero;stroke:rgb(16,22,47);stroke-width:1px;"/>
                    <path d="M435.999,532.504L204.325,532.504" style="fill:none;fill-rule:nonzero;stroke:rgb(16,22,47);stroke-width:1px;"/>
                    <path d="M435.999,568.888L204.325,568.888" style="fill:none;fill-rule:nonzero;stroke:rgb(16,22,47);stroke-width:1px;"/>
                    <path d="M389.684,421.879L389.684,606.353" style="fill:none;fill-rule:nonzero;stroke:rgb(16,22,47);stroke-width:1px;"/>
                    <path d="M342.681,421.879L342.681,606.353" style="fill:none;fill-rule:nonzero;stroke:rgb(16,22,47);stroke-width:1px;"/>
                    <path d="M295.677,421.879L295.677,606.353" style="fill:none;fill-rule:nonzero;stroke:rgb(16,22,47);stroke-width:1px;"/>
                    <path d="M248.772,421.879L248.772,606.353" style="fill:none;fill-rule:nonzero;stroke:rgb(16,22,47);stroke-width:1px;"/>
                    <path d="M420.167,604.485C421.052,606.746 419.971,609.205 417.807,610.188C419.184,612.253 420.954,614.121 423.019,615.695C424.199,613.63 426.657,612.843 428.821,613.826C430.984,614.81 431.967,617.268 431.279,619.431C432.066,619.628 432.951,619.726 433.836,619.726C435.507,619.825 437.179,619.726 438.851,619.53C438.359,617.366 439.539,615.006 441.702,614.22C443.866,613.433 446.127,614.318 447.209,616.186C449.274,614.81 451.044,613.04 452.519,611.073C450.749,609.795 450.061,607.533 451.044,605.468C451.929,603.501 454.092,602.42 456.059,602.911C456.256,602.026 456.354,601.141 456.452,600.158C456.551,598.584 456.452,597.11 456.256,595.635C454.191,595.831 452.224,594.75 451.437,592.684C450.651,590.718 451.437,588.554 453.011,587.374C451.732,585.309 450.061,583.539 448.094,582.064C446.816,583.638 444.652,584.228 442.686,583.343C440.719,582.458 439.637,580.294 440.129,578.229C438.949,577.934 437.769,577.738 436.491,577.738C435.212,577.639 434.032,577.738 432.852,577.934C433.246,579.999 432.066,582.163 430.001,582.949C427.936,583.736 425.674,582.851 424.494,581.081C422.429,582.359 420.561,584.031 418.987,585.998C420.856,587.178 421.544,589.636 420.659,591.701C419.676,593.865 417.217,594.848 414.956,594.16C414.661,595.241 414.464,596.421 414.366,597.601C414.267,598.978 414.366,600.453 414.562,601.83C416.824,601.043 419.282,602.223 420.167,604.485Z" style="fill:rgb(16,22,47);fill-rule:nonzero;stroke:rgb(16,22,47);stroke-width:1px;stroke-linecap:butt;stroke-linejoin:miter;"/>
                    <path d="M435.409,610.188C441.654,610.188 446.717,605.125 446.717,598.879C446.717,592.634 441.654,587.571 435.409,587.571C429.164,587.571 424.101,592.634 424.101,598.879C424.101,605.125 429.164,610.188 435.409,610.188Z" style="fill:white;fill-rule:nonzero;stroke:rgb(16,22,47);stroke-width:1px;stroke-linecap:butt;stroke-linejoin:miter;"/>
                    <path d="M431.377,598.88C431.377,596.519 433.147,594.749 435.507,594.749C437.769,594.749 439.637,596.716 439.637,598.978C439.637,601.043 437.769,602.911 435.606,603.01C433.344,603.01 431.377,601.24 431.377,598.88Z" style="fill:rgb(16,22,47);fill-rule:nonzero;stroke:rgb(16,22,47);stroke-width:1px;stroke-linecap:butt;stroke-linejoin:miter;"/>
                    <path d="M411.612,417.257L630.601,417.257C634.141,417.257 636.894,414.406 636.894,410.964L636.894,239.175C636.894,235.635 634.043,232.882 630.601,232.882L411.612,232.882C408.072,232.882 405.319,235.734 405.319,239.175L405.319,410.964C405.319,414.406 408.171,417.257 411.612,417.257Z" style="fill:none;fill-rule:nonzero;stroke:rgb(16,22,47);stroke-width:1px;"/>
                    <path d="M636.993,270.642L405.319,270.642" style="fill:none;fill-rule:nonzero;stroke:rgb(16,22,47);stroke-width:1px;"/>
                    <path d="M636.993,307.124L405.319,307.124" style="fill:none;fill-rule:nonzero;stroke:rgb(16,22,47);stroke-width:1px;"/>
                    <path d="M636.993,343.507L405.319,343.507" style="fill:none;fill-rule:nonzero;stroke:rgb(16,22,47);stroke-width:1px;"/>
                    <path d="M636.993,379.891L405.319,379.891" style="fill:none;fill-rule:nonzero;stroke:rgb(16,22,47);stroke-width:1px;"/>
                    <path d="M590.678,232.784L590.678,417.257" style="fill:none;fill-rule:nonzero;stroke:rgb(16,22,47);stroke-width:1px;"/>
                    <path d="M543.674,232.784L543.674,417.257" style="fill:none;fill-rule:nonzero;stroke:rgb(16,22,47);stroke-width:1px;"/>
                    <path d="M496.769,232.784L496.769,417.257" style="fill:none;fill-rule:nonzero;stroke:rgb(16,22,47);stroke-width:1px;"/>
                    <path d="M449.766,232.784L449.766,417.257" style="fill:none;fill-rule:nonzero;stroke:rgb(16,22,47);stroke-width:1px;"/>
                    <path d="M591.268,290.739C592.743,294.574 590.973,298.802 587.236,300.474C589.596,304.112 592.644,307.259 596.086,309.816C598.053,306.374 602.379,304.899 606.018,306.571C609.656,308.242 611.426,312.373 610.148,316.109C611.524,316.404 612.999,316.601 614.474,316.699C617.424,316.896 620.178,316.798 622.931,316.306C622.046,312.569 624.013,308.636 627.749,307.259C631.388,305.882 635.321,307.456 637.189,310.602C640.729,308.242 643.778,305.292 646.236,301.851C643.286,299.786 642.106,295.754 643.68,292.312C645.253,288.969 648.793,287.199 652.333,287.887C652.628,286.412 652.825,284.839 652.923,283.266C653.12,280.611 652.923,278.054 652.53,275.596C649.088,275.989 645.646,274.022 644.368,270.581C643.089,267.237 644.27,263.599 647.121,261.534C644.86,258.092 642.008,255.044 638.763,252.487C636.599,255.142 632.863,256.126 629.519,254.651C626.176,253.077 624.406,249.439 625.094,245.997C623.128,245.506 621.063,245.211 618.899,245.112C616.736,245.014 614.671,245.112 612.606,245.407C613.196,248.947 611.229,252.586 607.689,253.962C604.149,255.339 600.216,253.864 598.348,250.717C594.808,252.979 591.661,255.831 589.006,259.076C592.153,261.141 593.431,265.271 591.858,268.712C590.186,272.449 585.958,274.121 582.221,272.842C581.729,274.711 581.434,276.677 581.336,278.644C581.139,281.102 581.238,283.462 581.631,285.822C585.564,284.839 589.793,286.904 591.268,290.739Z" style="fill:rgb(16,22,47);fill-rule:nonzero;stroke:rgb(16,22,47);stroke-width:1px;stroke-linecap:butt;stroke-linejoin:miter;"/>
                    <path d="M617.228,300.277C627.818,300.277 636.403,291.693 636.403,281.102C636.403,270.512 627.818,261.927 617.228,261.927C606.638,261.927 598.053,270.512 598.053,281.102C598.053,291.693 606.638,300.277 617.228,300.277Z" style="fill:white;fill-rule:nonzero;stroke:rgb(16,22,47);stroke-width:1px;stroke-linecap:butt;stroke-linejoin:miter;"/>
                    <path d="M610.443,281.201C610.443,277.169 613.491,274.121 617.424,274.121C621.259,274.121 624.504,277.464 624.406,281.299C624.308,284.937 621.161,288.084 617.523,288.182C613.589,288.182 610.443,285.036 610.443,281.201Z" style="fill:rgb(16,22,47);fill-rule:nonzero;stroke:rgb(16,22,47);stroke-width:1px;stroke-linecap:butt;stroke-linejoin:miter;"/>
                    <path d="M601.986,276.542L67.347,276.542C66.364,276.542 65.478,277.329 65.478,278.411L65.478,553.548C65.478,554.531 66.265,555.416 67.347,555.416L601.986,555.416C602.969,555.416 603.854,554.629 603.854,553.548L603.854,278.411C603.854,277.427 602.969,276.542 601.986,276.542Z" style="fill:rgb(16,22,47);fill-rule:nonzero;"/>
                    <path d="M609.263,270.446L74.722,270.446C73.739,270.446 72.854,271.232 72.854,272.314L72.854,547.451C72.854,548.434 73.64,549.319 74.722,549.319L609.361,549.319C610.344,549.319 611.229,548.533 611.229,547.451L611.229,272.216C611.131,271.232 610.344,270.446 609.263,270.446Z" style="fill:rgb(16,22,47);fill-rule:nonzero;stroke:rgb(16,22,47);stroke-width:1px;stroke-linecap:butt;stroke-linejoin:miter;"/>
                    <path d="M609.263,270.446L74.722,270.446C73.739,270.446 72.854,271.232 72.854,272.314L72.854,301.617L611.229,301.617L611.229,272.314C611.131,271.232 610.344,270.446 609.263,270.446Z" style="fill:white;fill-rule:nonzero;stroke:rgb(16,22,47);stroke-width:1px;stroke-linecap:butt;stroke-linejoin:miter;"/>
                    <path d="M88.194,281.361C88.98,280.869 89.964,280.574 90.849,280.574C92.127,280.574 93.405,281.066 94.29,281.951C95.175,282.836 95.667,284.114 95.667,285.392C95.667,286.376 95.372,287.261 94.88,288.047C94.389,288.834 93.602,289.424 92.717,289.817C91.832,290.211 90.849,290.309 89.964,290.112C88.98,289.916 88.194,289.424 87.505,288.834C86.817,288.146 86.325,287.261 86.227,286.376C86.03,285.392 86.129,284.507 86.522,283.622C86.817,282.639 87.407,281.852 88.194,281.361Z" style="fill:rgb(16,22,47);"/>
                    <path d="M104.222,281.361C105.009,280.869 105.992,280.574 106.877,280.574C107.467,280.574 108.155,280.672 108.745,280.967C109.335,281.164 109.827,281.557 110.319,282.049C110.81,282.541 111.105,283.032 111.4,283.622C111.597,284.212 111.794,284.802 111.794,285.491C111.794,286.474 111.499,287.359 111.007,288.146C110.515,288.932 109.729,289.522 108.844,289.916C107.959,290.309 106.975,290.407 106.09,290.211C105.107,290.014 104.32,289.522 103.632,288.932C102.944,288.244 102.452,287.359 102.354,286.474C102.157,285.491 102.255,284.606 102.649,283.721C102.845,282.639 103.435,281.852 104.222,281.361Z" style="fill:rgb(16,22,47);"/>
                    <path d="M119.857,281.361C120.644,280.869 121.627,280.574 122.512,280.574C123.79,280.574 125.069,281.066 125.954,281.951C126.839,282.836 127.33,284.114 127.33,285.392C127.33,286.376 127.035,287.261 126.544,288.047C126.052,288.834 125.265,289.424 124.38,289.817C123.495,290.211 122.512,290.309 121.627,290.112C120.644,289.916 119.857,289.424 119.169,288.834C118.48,288.146 117.989,287.261 117.89,286.376C117.694,285.392 117.792,284.507 118.185,283.622C118.48,282.639 119.07,281.852 119.857,281.361Z" style="fill:rgb(16,22,47);"/>
                    <path d="M261.162,521.294L103.239,521.294C102.845,521.294 102.55,520.999 102.55,520.606L102.55,337.607C102.55,337.214 102.845,336.919 103.239,336.919L261.162,336.919C261.556,336.919 261.851,337.214 261.851,337.607L261.851,520.606C261.851,520.901 261.556,521.294 261.162,521.294Z" style="fill:rgb(16,22,47);fill-rule:nonzero;stroke:rgb(16,22,47);stroke-width:1px;stroke-linecap:butt;stroke-linejoin:miter;"/>
                    <path d="M263.916,518.344L106.09,518.344C105.697,518.344 105.402,518.049 105.402,517.656L105.402,334.657C105.402,334.264 105.697,333.969 106.09,333.969L264.014,333.969C264.407,333.969 264.702,334.264 264.702,334.657L264.702,517.656C264.604,517.951 264.309,518.344 263.916,518.344Z" style="fill:rgb(255,240,229);fill-rule:nonzero;stroke:rgb(16,22,47);stroke-width:1px;stroke-linecap:butt;stroke-linejoin:miter;"/>
                    <rect x="282.894" y="333.969" width="272.876" height="183.982" style="fill:rgb(16,22,47);fill-rule:nonzero;stroke:rgb(255,240,229);stroke-width:1px;stroke-linecap:butt;stroke-linejoin:miter;"/>
                    <path d="M385.849,442.923L305.117,442.923C302.757,442.923 300.791,440.956 300.791,438.596C300.791,436.236 302.757,434.269 305.117,434.269L385.849,434.269C388.209,434.269 390.176,436.236 390.176,438.596C390.176,441.054 388.308,442.923 385.849,442.923Z" style="fill:rgb(16,22,47);fill-rule:nonzero;stroke:rgb(255,240,229);stroke-width:1px;stroke-linecap:butt;stroke-linejoin:miter;"/>
                    <path d="M305.117,379.694L353.399,379.694C355.759,379.694 357.726,381.661 357.726,384.021C357.726,386.381 355.759,388.347 353.399,388.347L305.117,388.347C302.757,388.347 300.791,386.381 300.791,384.021C300.791,381.661 302.757,379.694 305.117,379.694Z" style="fill:rgb(16,22,47);fill-rule:nonzero;stroke:rgb(255,240,229);stroke-width:1px;stroke-linecap:butt;stroke-linejoin:miter;"/>
                    <path d="M305.117,361.404L426.854,361.404C429.214,361.404 431.181,363.371 431.181,365.731C431.181,368.091 429.214,370.057 426.854,370.057L305.117,370.057C302.757,370.057 300.791,368.091 300.791,365.731C300.791,363.272 302.757,361.404 305.117,361.404Z" style="fill:rgb(16,22,47);fill-rule:nonzero;stroke:rgb(255,240,229);stroke-width:1px;stroke-linecap:butt;stroke-linejoin:miter;"/>
                    <path d="M305.117,379.694L353.399,379.694C355.759,379.694 357.726,381.661 357.726,384.021C357.726,386.381 355.759,388.347 353.399,388.347L305.117,388.347C302.757,388.347 300.791,386.381 300.791,384.021C300.791,381.661 302.757,379.694 305.117,379.694Z" style="fill:none;fill-rule:nonzero;stroke:rgb(255,240,229);stroke-width:1px;stroke-linecap:butt;stroke-linejoin:miter;"/>
                    <path d="M318.098,416.176L410.433,416.176C412.793,416.176 414.759,418.142 414.759,420.502C414.759,422.862 412.793,424.829 410.433,424.829L318.098,424.829C315.738,424.829 313.771,422.862 313.771,420.502C313.673,418.142 315.639,416.176 318.098,416.176Z" style="fill:rgb(16,22,47);fill-rule:nonzero;stroke:rgb(255,240,229);stroke-width:1px;stroke-linecap:butt;stroke-linejoin:miter;"/>
                    <path d="M305.117,398.082L364.019,398.082C366.379,398.082 368.346,400.049 368.346,402.409C368.346,404.769 366.379,406.736 364.019,406.736L305.117,406.736C302.757,406.736 300.791,404.769 300.791,402.409C300.791,400.049 302.757,398.082 305.117,398.082Z" style="fill:rgb(102,194,255);fill-rule:nonzero;stroke:rgb(255,240,229);stroke-width:1px;stroke-linecap:butt;stroke-linejoin:miter;"/>
                    <path d="M369.034,379.694L421.249,379.694C423.609,379.694 425.576,381.661 425.576,384.021C425.576,386.381 423.609,388.347 421.249,388.347L369.034,388.347C366.674,388.347 364.708,386.381 364.708,384.021C364.708,381.661 366.674,379.694 369.034,379.694Z" style="fill:rgb(102,194,255);fill-rule:nonzero;stroke:rgb(255,240,229);stroke-width:1px;stroke-linecap:butt;stroke-linejoin:miter;"/>
                    <path d="M378.081,398.082L423.904,398.082C426.264,398.082 428.231,400.049 428.231,402.409C428.231,404.769 426.264,406.736 423.904,406.736L377.983,406.736C375.623,406.736 373.656,404.769 373.656,402.409C373.656,400.049 375.623,398.082 378.081,398.082Z" style="fill:rgb(16,22,47);fill-rule:nonzero;stroke:rgb(255,240,229);stroke-width:1px;stroke-linecap:butt;stroke-linejoin:miter;"/>
                    <path d="M426.953,497.203L305.117,497.203C302.757,497.203 300.791,495.236 300.791,492.876C300.791,490.516 302.757,488.549 305.117,488.549L426.854,488.549C429.214,488.549 431.181,490.516 431.181,492.876C431.279,495.236 429.313,497.203 426.953,497.203Z" style="fill:rgb(16,22,47);fill-rule:nonzero;stroke:rgb(255,240,229);stroke-width:1px;stroke-linecap:butt;stroke-linejoin:miter;"/>
                    <path d="M385.849,442.923L305.117,442.923C302.757,442.923 300.791,440.956 300.791,438.596C300.791,436.236 302.757,434.269 305.117,434.269L385.849,434.269C388.209,434.269 390.176,436.236 390.176,438.596C390.176,441.054 388.308,442.923 385.849,442.923Z" style="fill:none;fill-rule:nonzero;stroke:rgb(255,240,229);stroke-width:1px;stroke-linecap:butt;stroke-linejoin:miter;"/>
                    <path d="M432.853,442.923L399.911,442.923C397.551,442.923 395.584,440.956 395.584,438.596C395.584,436.236 397.551,434.269 399.911,434.269L432.853,434.269C435.213,434.269 437.179,436.236 437.179,438.596C437.179,441.054 435.213,442.923 432.853,442.923Z" style="fill:rgb(102,194,255);fill-rule:nonzero;stroke:rgb(255,240,229);stroke-width:1px;stroke-linecap:butt;stroke-linejoin:miter;"/>
                    <path d="M426.953,478.814L378.671,478.814C376.311,478.814 374.344,476.848 374.344,474.488C374.344,472.128 376.311,470.161 378.671,470.161L426.953,470.161C429.313,470.161 431.279,472.128 431.279,474.488C431.279,476.848 429.313,478.814 426.953,478.814Z" style="fill:rgb(16,22,47);fill-rule:nonzero;stroke:rgb(255,240,229);stroke-width:1px;stroke-linecap:butt;stroke-linejoin:miter;"/>
                    <path d="M426.953,460.426L368.051,460.426C365.691,460.426 363.724,458.459 363.724,456.099C363.724,453.739 365.691,451.773 368.051,451.773L426.953,451.773C429.313,451.773 431.279,453.739 431.279,456.099C431.279,458.558 429.313,460.426 426.953,460.426Z" style="fill:rgb(102,194,255);fill-rule:nonzero;stroke:rgb(255,240,229);stroke-width:1px;stroke-linecap:butt;stroke-linejoin:miter;"/>
                    <path d="M363.036,478.814L310.821,478.814C308.461,478.814 306.494,476.848 306.494,474.488C306.494,472.128 308.461,470.161 310.821,470.161L363.036,470.161C365.396,470.161 367.363,472.128 367.363,474.488C367.363,476.848 365.396,478.814 363.036,478.814Z" style="fill:rgb(102,194,255);fill-rule:nonzero;stroke:rgb(255,240,229);stroke-width:1px;stroke-linecap:butt;stroke-linejoin:miter;"/>
                    <path d="M353.989,460.426L308.068,460.426C305.708,460.426 303.741,458.459 303.741,456.099C303.741,453.739 305.708,451.773 308.068,451.773L353.989,451.773C356.349,451.773 358.316,453.739 358.316,456.099C358.316,458.558 356.448,460.426 353.989,460.426Z" style="fill:rgb(16,22,47);fill-rule:nonzero;stroke:rgb(255,240,229);stroke-width:1px;stroke-linecap:butt;stroke-linejoin:miter;"/>
                    <path d="M468.117,361.404L534,361.404C536.36,361.404 538.327,363.371 538.327,365.731C538.327,368.091 536.36,370.057 534,370.057L468.117,370.057C465.757,370.057 463.791,368.091 463.791,365.731C463.791,363.272 465.757,361.404 468.117,361.404Z" style="fill:rgb(102,194,255);fill-rule:nonzero;stroke:rgb(255,240,229);stroke-width:1px;stroke-linecap:butt;stroke-linejoin:miter;"/>
                    <path d="M468.117,379.694L516.399,379.694C518.759,379.694 520.726,381.661 520.726,384.021C520.726,386.381 518.759,388.347 516.399,388.347L468.117,388.347C465.757,388.347 463.791,386.381 463.791,384.021C463.791,381.661 465.757,379.694 468.117,379.694Z" style="fill:none;fill-rule:nonzero;stroke:rgb(255,240,229);stroke-width:1px;stroke-linecap:butt;stroke-linejoin:miter;"/>
                    <path d="M481.097,416.176L527,416.176C529.36,416.176 531.327,418.142 531.327,420.502C531.327,422.862 529.36,424.829 527,424.829L481.097,424.829C478.737,424.829 476.771,422.862 476.771,420.502C476.672,418.142 478.639,416.176 481.097,416.176Z" style="fill:rgb(102,194,255);fill-rule:nonzero;stroke:rgb(255,240,229);stroke-width:1px;stroke-linecap:butt;stroke-linejoin:miter;"/>
                    <path d="M468.117,398.082L527.019,398.082C529.379,398.082 531.346,400.049 531.346,402.409C531.346,404.769 529.379,406.736 527.019,406.736L468.117,406.736C465.757,406.736 463.791,404.769 463.791,402.409C463.791,400.049 465.757,398.082 468.117,398.082Z" style="fill:rgb(16,22,47);fill-rule:nonzero;stroke:rgb(255,240,229);stroke-width:1px;stroke-linecap:butt;stroke-linejoin:miter;"/>
                    <path d="M540.272,497.203L468.117,497.203C465.757,497.203 463.791,495.236 463.791,492.876C463.791,490.516 465.757,488.549 468.117,488.549L540.173,488.549C542.533,488.549 544.5,490.516 544.5,492.876C544.598,495.236 542.632,497.203 540.272,497.203Z" style="fill:rgb(16,22,47);fill-rule:nonzero;stroke:rgb(255,240,229);stroke-width:1px;stroke-linecap:butt;stroke-linejoin:miter;"/>
                    <path d="M540.5,442.923L468.117,442.923C465.757,442.923 463.791,440.956 463.791,438.596C463.791,436.236 465.757,434.269 468.117,434.269L540.5,434.269C542.86,434.269 544.827,436.236 544.827,438.596C544.827,441.054 542.958,442.923 540.5,442.923Z" style="fill:none;fill-rule:nonzero;stroke:rgb(255,240,229);stroke-width:1px;stroke-linecap:butt;stroke-linejoin:miter;"/>
                    <path d="M526.036,478.814L473.821,478.814C471.461,478.814 469.494,476.848 469.494,474.488C469.494,472.128 471.461,470.161 473.821,470.161L526.036,470.161C528.396,470.161 530.362,472.128 530.362,474.488C530.362,476.848 528.396,478.814 526.036,478.814Z" style="fill:rgb(16,22,47);fill-rule:nonzero;stroke:rgb(255,240,229);stroke-width:1px;stroke-linecap:butt;stroke-linejoin:miter;"/>
                    <path d="M516.989,460.426L471.067,460.426C468.707,460.426 466.741,458.459 466.741,456.099C466.741,453.739 468.707,451.773 471.067,451.773L516.989,451.773C519.349,451.773 521.316,453.739 521.316,456.099C521.316,458.558 519.447,460.426 516.989,460.426Z" style="fill:rgb(16,22,47);fill-rule:nonzero;stroke:rgb(255,240,229);stroke-width:1px;stroke-linecap:butt;stroke-linejoin:miter;"/>
                    <path d="M452.519,334L452.519,517.5" style="fill:none;fill-rule:nonzero;stroke:rgb(255,240,229);stroke-width:1px;"/>
                    <path d="M224.68,369.566L125.56,369.566C123.889,369.566 122.512,368.189 122.512,366.517L122.512,358.159C122.512,356.487 123.889,355.111 125.56,355.111L224.68,355.111C226.352,355.111 227.729,356.487 227.729,358.159L227.729,366.517C227.827,368.189 226.45,369.566 224.68,369.566Z" style="fill:rgb(16,22,47);fill-rule:nonzero;stroke:rgb(16,22,47);stroke-width:1px;stroke-linecap:butt;stroke-linejoin:miter;"/>
                    <path d="M122.512,467.113L245.232,467.113" style="fill:none;fill-rule:nonzero;stroke:rgb(16,22,47);stroke-width:1px;"/>
                    <path d="M122.512,482.551L245.232,482.551" style="fill:none;fill-rule:nonzero;stroke:rgb(16,22,47);stroke-width:1px;"/>
                    <path d="M122.512,436.334L245.232,436.334" style="fill:none;fill-rule:nonzero;stroke:rgb(16,22,47);stroke-width:1px;"/>
                    <path d="M122.512,451.674L245.232,451.674" style="fill:none;fill-rule:nonzero;stroke:rgb(16,22,47);stroke-width:1px;"/>
                    <path d="M122.512,420.896L245.232,420.896" style="fill:none;fill-rule:nonzero;stroke:rgb(16,22,47);stroke-width:1px;"/>
                    <path d="M122.512,390.117L245.232,390.117" style="fill:none;fill-rule:nonzero;stroke:rgb(16,22,47);stroke-width:1px;"/>
                    <path d="M122.512,405.457L245.232,405.457" style="fill:none;fill-rule:nonzero;stroke:rgb(16,22,47);stroke-width:1px;"/>
                    <path d="M122.512,497.989L220.059,497.989" style="fill:none;fill-rule:nonzero;stroke:rgb(16,22,47);stroke-width:1px;"/>
                    <path d="M183.184,403.884L183.184,485.796" style="fill:none;fill-rule:nonzero;stroke:rgb(16,22,47);stroke-width:1px;stroke-linecap:butt;stroke-linejoin:miter;"/>
                    <path d="M183.282,410.079C185.509,410.079 187.314,408.274 187.314,406.047C187.314,403.821 185.509,402.016 183.282,402.016C181.055,402.016 179.25,403.821 179.25,406.047C179.25,408.274 181.055,410.079 183.282,410.079Z" style="fill:rgb(255,211,0);fill-rule:nonzero;stroke:rgb(16,22,47);stroke-width:1px;stroke-linecap:butt;stroke-linejoin:miter;"/>
                    <path d="M183.184,403.884L183.184,485.796" style="fill:none;fill-rule:nonzero;stroke:rgb(16,22,47);stroke-width:1px;stroke-linecap:butt;stroke-linejoin:miter;"/>
                    <path d="M183.282,410.079C185.509,410.079 187.314,408.274 187.314,406.047C187.314,403.821 185.509,402.016 183.282,402.016C181.055,402.016 179.25,403.821 179.25,406.047C179.25,408.274 181.055,410.079 183.282,410.079Z" style="fill:rgb(255,211,0);fill-rule:nonzero;stroke:rgb(16,22,47);stroke-width:1px;stroke-linecap:butt;stroke-linejoin:miter;"/>
                    <path d="M183.184,403.884L183.184,485.796" style="fill:none;fill-rule:nonzero;stroke:rgb(16,22,47);stroke-width:1px;stroke-linecap:butt;stroke-linejoin:miter;"/>
                    <path d="M183.5,415C188.194,415 192,410.971 192,406C192,401.029 188.194,397 183.5,397C178.806,397 175,401.029 175,406C175,410.971 178.806,415 183.5,415Z" style="fill:rgb(255,211,0);fill-rule:nonzero;stroke:rgb(16,22,47);stroke-width:1px;stroke-linecap:butt;stroke-linejoin:miter;"/>
                    <path d="M221.239,576.459L145.227,576.459C140.704,576.459 137.065,572.821 137.065,568.298L137.065,460.623C137.065,456.099 140.704,452.461 145.227,452.461L221.239,452.461C225.762,452.461 229.4,456.099 229.4,460.623L229.4,568.298C229.499,572.821 225.762,576.459 221.239,576.459Z" style="fill:rgb(16,22,47);fill-rule:nonzero;"/>
                    <path d="M224.68,573.214L148.669,573.214C144.145,573.214 140.507,569.576 140.507,565.053L140.507,457.378C140.507,452.854 144.145,449.216 148.669,449.216L224.68,449.216C229.204,449.216 232.842,452.854 232.842,457.378L232.842,565.053C232.842,569.576 229.204,573.214 224.68,573.214Z" style="fill:white;fill-rule:nonzero;stroke:rgb(16,22,47);stroke-width:1px;stroke-linecap:butt;stroke-linejoin:miter;"/>
                    <path d="M195.967,539.093C195.967,536.536 191.444,534.569 185.839,534.569C180.234,534.569 175.71,536.634 175.71,539.093C175.71,539.683 176.005,540.273 176.497,540.863C176.005,541.354 175.71,541.944 175.71,542.633C175.71,543.813 176.694,544.894 178.267,545.681C178.169,545.878 178.169,546.074 178.169,546.271C178.169,548.139 181.61,549.713 185.839,549.713C190.067,549.713 193.509,548.139 193.509,546.271C193.509,546.074 193.509,545.878 193.41,545.681C194.984,544.894 195.967,543.813 195.967,542.633C195.967,542.043 195.672,541.453 195.18,540.863C195.77,540.273 195.967,539.683 195.967,539.093Z" style="fill:rgb(16,22,47);fill-rule:nonzero;"/>
                    <path d="M215.142,500.546C215.142,483.731 200.884,470.358 183.872,471.538C169.319,472.619 157.715,484.616 157.027,499.169C156.634,508.314 160.37,516.476 166.565,522.081C167.745,523.163 168.827,524.244 169.909,525.424C176.89,533.488 178.365,538.306 178.365,538.306C183.184,540.863 188.887,540.863 193.705,538.404L193.804,538.306C193.804,538.306 195.279,533.389 202.26,525.424C203.244,524.343 204.325,523.261 205.407,522.278C211.405,516.869 215.142,509.101 215.142,500.546Z" style="fill:rgb(255,211,0);fill-rule:nonzero;stroke:rgb(16,22,47);stroke-width:1px;stroke-linecap:butt;stroke-linejoin:miter;"/>
                    <path d="M184.462,528.669C184.462,528.669 183.577,511.854 176.497,504.479C175.219,503.201 174.53,501.431 174.53,499.661C174.629,497.793 175.514,495.826 178.759,495.531C189.084,494.548 181.61,514.116 180.529,504.283C179.447,494.449 188.1,492.089 190.165,497.301C192.23,502.513 187.51,512.936 187.019,506.348C186.527,499.759 191.345,494.154 196.065,496.416C198.229,497.399 198.229,500.153 197.934,501.333C197.737,502.218 197.147,503.103 196.459,503.693C188.789,510.773 187.805,528.571 187.805,528.571" style="fill:none;fill-rule:nonzero;stroke:rgb(16,22,47);stroke-width:1px;stroke-linecap:butt;stroke-linejoin:miter;"/>
                    <path d="M208.947,505.364C207.669,512.149 203.441,517.853 197.737,521.196" style="fill:none;fill-rule:nonzero;stroke:rgb(16,22,47);stroke-width:1px;"/>
                    <path d="M167.254,515.001C164.304,511.068 162.534,506.249 162.534,500.939C162.534,490.516 169.319,481.764 178.759,478.716" style="fill:none;fill-rule:nonzero;stroke:rgb(16,22,47);stroke-width:1px;"/>
                    <path d="M237.955,293.259L344.549,293.259C346.024,293.259 347.204,294.439 347.204,295.914L347.204,376.547C347.204,379.301 345.041,381.464 342.386,381.464L329.307,381.464L336.092,400.246C336.781,402.704 334.027,404.671 332.061,403.196L308.854,381.464L237.955,381.464C236.48,381.464 235.3,380.284 235.3,378.809L235.3,295.914C235.3,294.439 236.48,293.259 237.955,293.259Z" style="fill:rgb(16,22,47);"/>
                    <path d="M240.217,290.309L346.811,290.309C348.286,290.309 349.466,291.489 349.466,292.964L349.466,373.597C349.466,376.351 347.302,378.514 344.647,378.514L331.471,378.514L338.256,397.296C338.944,399.754 336.191,401.721 334.224,400.246L311.214,378.514L240.315,378.514C238.84,378.514 237.66,377.334 237.66,375.859L237.66,292.964C237.562,291.489 238.742,290.309 240.217,290.309Z" style="fill:rgb(255,211,0);stroke:rgb(16,22,47);stroke-width:1px;stroke-linecap:butt;stroke-linejoin:miter;"/>
                    <path d="M321.244,315.384L256.639,315.384C255.459,315.384 254.475,314.401 254.475,313.221L254.475,308.009C254.475,306.829 255.459,305.846 256.639,305.846L321.244,305.846C322.424,305.846 323.407,306.829 323.407,308.009L323.407,313.221C323.407,314.401 322.424,315.384 321.244,315.384Z" style="fill:rgb(16,22,47);fill-rule:nonzero;stroke:rgb(16,22,47);stroke-width:1px;stroke-linecap:butt;stroke-linejoin:miter;"/>
                    <path d="M254.475,359.044L325.964,359.044" style="fill:none;fill-rule:nonzero;stroke:rgb(16,22,47);stroke-width:1px;"/>
                    <path d="M254.475,349.014L334.814,349.014" style="fill:none;fill-rule:nonzero;stroke:rgb(16,22,47);stroke-width:1px;"/>
                    <path d="M254.475,328.757L334.814,328.757" style="fill:none;fill-rule:nonzero;stroke:rgb(16,22,47);stroke-width:1px;"/>
                    <path d="M254.475,338.886L334.814,338.886" style="fill:none;fill-rule:nonzero;stroke:rgb(16,22,47);stroke-width:1px;"/>
                    <path d="M639.648,620.316L513.978,620.316C506.602,620.316 500.703,614.416 500.703,607.041L500.703,356.291C500.703,348.916 506.602,343.016 513.978,343.016L639.648,343.016C647.023,343.016 652.923,348.916 652.923,356.291L652.923,607.041C652.923,614.416 647.023,620.316 639.648,620.316Z" style="fill:white;fill-rule:nonzero;stroke:rgb(16,22,47);stroke-width:1px;stroke-linecap:butt;stroke-linejoin:miter;"/>
                    <path d="M575.239,612.351C580.724,612.351 585.171,607.905 585.171,602.42C585.171,596.934 580.724,592.488 575.239,592.488C569.754,592.488 565.308,596.934 565.308,602.42C565.308,607.905 569.754,612.351 575.239,612.351Z" style="fill:rgb(255,211,0);fill-rule:nonzero;stroke:rgb(16,22,47);stroke-width:1px;stroke-linecap:butt;stroke-linejoin:miter;"/>
                    <path d="M639.549,584.818L514.174,584.818C512.306,584.818 510.733,583.244 510.733,581.376L510.733,375.072C510.733,373.204 512.306,371.631 514.174,371.631L639.549,371.631C641.418,371.631 642.991,373.204 642.991,375.072L642.991,581.376C642.893,583.244 641.418,584.818 639.549,584.818Z" style="fill:rgb(16,22,47);fill-rule:nonzero;stroke:rgb(16,22,47);stroke-width:1px;stroke-linecap:butt;stroke-linejoin:miter;"/>
                    <path d="M530.399,468.883L619.489,468.883C621.259,468.883 622.636,470.259 622.636,472.029C622.636,473.799 621.259,475.176 619.489,475.176L530.399,475.176C528.629,475.176 527.253,473.799 527.253,472.029C527.253,470.358 528.629,468.883 530.399,468.883Z" style="fill:rgb(102,194,255);fill-rule:nonzero;stroke:rgb(255,240,229);stroke-width:1px;stroke-linecap:butt;stroke-linejoin:miter;"/>
                    <path d="M530.399,482.354L565.799,482.354C567.569,482.354 568.946,483.731 568.946,485.501C568.946,487.271 567.569,488.648 565.799,488.648L530.399,488.648C528.629,488.648 527.253,487.271 527.253,485.501C527.253,483.829 528.629,482.354 530.399,482.354Z" style="fill:rgb(102,194,255);fill-rule:nonzero;stroke:rgb(255,240,229);stroke-width:1px;stroke-linecap:butt;stroke-linejoin:miter;"/>
                    <path d="M539.839,509.003L607.394,509.003C609.164,509.003 610.541,510.379 610.541,512.149C610.541,513.919 609.164,515.296 607.394,515.296L539.839,515.296C538.069,515.296 536.693,513.919 536.693,512.149C536.693,510.478 538.069,509.003 539.839,509.003Z" style="fill:rgb(102,194,255);fill-rule:nonzero;stroke:rgb(255,240,229);stroke-width:1px;stroke-linecap:butt;stroke-linejoin:miter;"/>
                    <path d="M530.399,495.826L573.469,495.826C575.239,495.826 576.616,497.203 576.616,498.973C576.616,500.743 575.239,502.119 573.469,502.119L530.399,502.119C528.629,502.119 527.253,500.743 527.253,498.973C527.253,497.203 528.629,495.826 530.399,495.826Z" style="fill:rgb(16,22,47);fill-rule:nonzero;stroke:rgb(255,240,229);stroke-width:1px;stroke-linecap:butt;stroke-linejoin:miter;"/>
                    <path d="M577.206,482.354L615.359,482.354C617.129,482.354 618.506,483.731 618.506,485.501C618.506,487.271 617.129,488.648 615.359,488.648L577.206,488.648C575.436,488.648 574.059,487.271 574.059,485.501C573.961,483.829 575.436,482.354 577.206,482.354Z" style="fill:rgb(16,22,47);fill-rule:nonzero;stroke:rgb(255,240,229);stroke-width:1px;stroke-linecap:butt;stroke-linejoin:miter;"/>
                    <path d="M583.794,495.826L617.424,495.826C619.194,495.826 620.571,497.203 620.571,498.973C620.571,500.743 619.194,502.119 617.424,502.119L583.794,502.119C582.024,502.119 580.648,500.743 580.648,498.973C580.549,497.203 582.024,495.826 583.794,495.826Z" style="fill:rgb(102,194,255);fill-rule:nonzero;stroke:rgb(255,240,229);stroke-width:1px;stroke-linecap:butt;stroke-linejoin:miter;"/>
                    <path d="M619.489,568.298L530.399,568.298C528.629,568.298 527.253,566.921 527.253,565.151C527.253,563.381 528.629,562.004 530.399,562.004L619.489,562.004C621.259,562.004 622.636,563.381 622.636,565.151C622.734,566.921 621.259,568.298 619.489,568.298Z" style="fill:rgb(102,194,255);fill-rule:nonzero;stroke:rgb(255,240,229);stroke-width:1px;stroke-linecap:butt;stroke-linejoin:miter;"/>
                    <path d="M589.498,528.669L530.399,528.669C528.629,528.669 527.253,527.293 527.253,525.523C527.253,523.753 528.629,522.376 530.399,522.376L589.498,522.376C591.268,522.376 592.644,523.753 592.644,525.523C592.644,527.194 591.268,528.669 589.498,528.669Z" style="fill:rgb(102,194,255);fill-rule:nonzero;stroke:rgb(255,240,229);stroke-width:1px;stroke-linecap:butt;stroke-linejoin:miter;"/>
                    <path d="M623.816,528.669L599.724,528.669C597.954,528.669 596.578,527.293 596.578,525.523C596.578,523.753 597.954,522.376 599.724,522.376L623.816,522.376C625.586,522.376 626.963,523.753 626.963,525.523C627.061,527.194 625.586,528.669 623.816,528.669Z" style="fill:rgb(16,22,47);fill-rule:nonzero;stroke:rgb(255,240,229);stroke-width:1px;stroke-linecap:butt;stroke-linejoin:miter;"/>
                    <path d="M619.489,554.924L584.089,554.924C582.319,554.924 580.943,553.548 580.943,551.778C580.943,550.008 582.319,548.631 584.089,548.631L619.489,548.631C621.259,548.631 622.636,550.008 622.636,551.778C622.734,553.449 621.259,554.924 619.489,554.924Z" style="fill:rgb(16,22,47);fill-rule:nonzero;stroke:rgb(255,240,229);stroke-width:1px;stroke-linecap:butt;stroke-linejoin:miter;"/>
                    <path d="M619.489,541.453L576.419,541.453C574.649,541.453 573.273,540.076 573.273,538.306C573.273,536.536 574.649,535.159 576.419,535.159L619.489,535.159C621.259,535.159 622.636,536.536 622.636,538.306C622.734,539.978 621.259,541.453 619.489,541.453Z" style="fill:rgb(102,194,255);fill-rule:nonzero;stroke:rgb(255,240,229);stroke-width:1px;stroke-linecap:butt;stroke-linejoin:miter;"/>
                    <path d="M572.781,554.924L534.628,554.924C532.858,554.924 531.481,553.548 531.481,551.778C531.481,550.008 532.858,548.631 534.628,548.631L572.781,548.631C574.551,548.631 575.928,550.008 575.928,551.778C575.928,553.449 574.453,554.924 572.781,554.924Z" style="fill:rgb(102,194,255);fill-rule:nonzero;stroke:rgb(255,240,229);stroke-width:1px;stroke-linecap:butt;stroke-linejoin:miter;"/>
                    <path d="M566.193,541.453L532.563,541.453C530.793,541.453 529.416,540.076 529.416,538.306C529.416,536.536 530.793,535.159 532.563,535.159L566.193,535.159C567.963,535.159 569.339,536.536 569.339,538.306C569.339,539.978 567.963,541.453 566.193,541.453Z" style="fill:rgb(16,22,47);fill-rule:nonzero;stroke:rgb(255,240,229);stroke-width:1px;stroke-linecap:butt;stroke-linejoin:miter;"/>
                    <rect x="528.531" y="394.149" width="95.777" height="62.147" style="fill:rgb(255,240,229);fill-rule:nonzero;stroke:rgb(16,22,47);stroke-width:1px;stroke-linecap:butt;stroke-linejoin:miter;"/>
                    <path d="M603.854,416.766L542.298,416.766C541.118,416.766 540.134,415.782 540.134,414.602L540.134,409.784C540.134,408.604 541.118,407.621 542.298,407.621L603.854,407.621C605.034,407.621 606.018,408.604 606.018,409.784L606.018,414.602C606.018,415.782 605.034,416.766 603.854,416.766Z" style="fill:rgb(16,22,47);fill-rule:nonzero;stroke:rgb(16,22,47);stroke-width:1px;stroke-linecap:butt;stroke-linejoin:miter;"/>
                    <path d="M540.134,428.664L610.049,428.664" style="fill:none;fill-rule:nonzero;stroke:rgb(16,22,47);stroke-width:1px;"/>
                    <path d="M540.134,436.236L610.049,436.236" style="fill:none;fill-rule:nonzero;stroke:rgb(16,22,47);stroke-width:1px;"/>
                    <path d="M540.134,443.808L601.199,443.808" style="fill:none;fill-rule:nonzero;stroke:rgb(16,22,47);stroke-width:1px;"/>
                    <path d="M595.496,362.486L558.228,362.486C557.244,362.486 556.359,361.699 556.359,360.617C556.359,359.634 557.146,358.749 558.228,358.749L595.496,358.749C596.479,358.749 597.364,359.536 597.364,360.617C597.266,361.601 596.479,362.486 595.496,362.486Z" style="fill:rgb(16,22,47);fill-rule:nonzero;stroke:rgb(16,22,47);stroke-width:1px;stroke-linecap:butt;stroke-linejoin:miter;"/>
                </g>
            </g>
        </g>
    </g>
</svg>
